<svg xmlns="http://www.w3.org/2000/svg" width="39" height="60" viewBox="0 0 39 60"><g><g><path fill="#2575e6" d="M38.151 7.414h-.028c.68-.468.52-1.052-.485-1.41L21.633.307c-1.188-.423-3.107-.407-4.287.036L.887 6.536C-.293 6.98-.296 7.706.88 8.16l5.884 2.266v1.633c0 .966.556 2.03 1.335 2.701-.356.726-.628 1.568-.836 2.357-.462 1.75-.692 3.959 1.097 4.489 0 0 3.243-.743 5.163-2.454.656-.585 1.495-.706 2.214-.202 2 1.404 6.653 3.706 15.291 3.253 0 0 .481-2.888.3-5.818a8.495 8.495 0 0 0-.414-2.117c.52-.64.862-1.453.862-2.208v-1.916l5.542-2.337v9.784l-.972 3.242h2.81l-1.006-3.276V7.414z"/></g><g><path fill="#2575e6" d="M10.784 51.852c1.784-.63 3.561-1.742 5.048-2.988a2.677 2.677 0 0 0 .333-3.77 2.681 2.681 0 0 0-3.774-.34 13.87 13.87 0 0 1-1.607 1.143v-5.64l3.155 1.362c.001 0 .002-.004.004-.004l5.832 2.518 8.99-3.882v5.828c-.653-.38-1.327-.84-1.912-1.327a2.68 2.68 0 1 0-3.44 4.111c1.57 1.317 3.465 2.48 5.35 3.088v1.757l-8.99 3.516-8.99-3.516v-1.856zm-7.756-4.9c-.016.153-.054.304-.068.453-.116 1.214.24 2.366 1.003 3.237a4.868 4.868 0 0 0 2.347 1.516c.45.14.92.21 1.402.228v5.05c0 1.178.957 2.135 2.136 2.135h19.068a2.137 2.137 0 0 0 2.136-2.135v-5.057c.082.004.167.02.247.02 1.462 0 2.82-.5 3.894-1.73.764-.871 1.12-2.02 1.003-3.235l-.088-.01c-.014-.168-.051-.321-.08-.471-1.524-8.975-11.504-13.579-12.191-13.885a11.343 11.343 0 0 0 7.105-9.735c-.723.034-1.443.057-2.138.057-7.53 0-11.733-2.164-13.57-3.454-.389-.274-.828-.21-1.227.144-2.05 1.825-5.375 2.603-5.516 2.637l-.166.035c.09 4.74 3.085 8.757 7.278 10.363-1.309.575-11.091 5.165-12.575 13.837z"/></g></g></svg>