<svg xmlns="http://www.w3.org/2000/svg" width="41" height="63" viewBox="0 0 41 63"><g><g><path fill="#2575e6" d="M20.48 7.261c7.146 0 12.939 5.794 12.939 12.94 0 7.144-5.794 12.938-12.94 12.938-7.144 0-12.937-5.794-12.937-12.938 0-7.147 5.793-12.94 12.938-12.94zM1.132 20.976l1.965.76c.315.12.61.154.876.122.04.365.102.722.164 1.08-.276.03-.565.133-.85.334L1.6 24.449c-1 .703-.83 1.377.389 1.508l2.096.225c.358.038.668-.017.928-.132.133.343.28.678.435 1.01a1.78 1.78 0 0 0-.782.557l-1.323 1.574c-.784.937-.445 1.546.765 1.357l2.083-.325c.376-.059.671-.204.898-.399.217.298.436.595.672.877a1.76 1.76 0 0 0-.637.758l-.871 1.863c-.514 1.109-.03 1.608 1.09 1.113l1.927-.854c.357-.158.61-.381.775-.635.287.233.586.45.889.666-.213.226-.375.53-.442.922l-.36 2.024c-.137.786.075 1.202.5 1.19L4.718 59.712c-.319 1.184.3 1.674 1.38 1.095l3.856-2.065c1.08-.578 2.693-.382 3.604.44l3.054 2.758c.91.821 1.687.495 1.733-.728l.903-22.916.449 1.236c.42 1.152 1.116 1.16 1.558.017l.759-1.963c.005-.013.005-.024.009-.036l.93 23.663c.048 1.225.824 1.55 1.736.728l3.054-2.757c.909-.821 2.522-1.019 3.603-.441l3.856 2.066c1.082.577 1.698.089 1.38-1.096l-5.944-22.076c.19-.173.27-.528.186-1.067L30.5 34.49a1.781 1.781 0 0 0-.392-.893c.298-.211.596-.428.88-.659.166.246.408.462.745.62l1.861.868c1.112.52 1.612.03 1.114-1.089l-.85-1.926a1.776 1.776 0 0 0-.573-.733c.235-.28.448-.576.665-.87.22.183.503.321.856.385l2.022.357c1.209.212 1.564-.388.793-1.341l-1.32-1.64a1.835 1.835 0 0 0-.705-.548c.153-.328.296-.66.427-1 .25.105.544.155.879.125l2.048-.177c1.223-.109 1.411-.78.417-1.503l-1.7-1.241a1.85 1.85 0 0 0-.77-.343c.061-.354.122-.709.16-1.07.253.024.53-.012.823-.118l1.932-.702c1.152-.42 1.16-1.119.014-1.558l-1.963-.76a1.885 1.885 0 0 0-.777-.136c-.031-.364-.086-.72-.14-1.079.239-.045.486-.148.728-.318l1.684-1.179c1.004-.705.832-1.381-.39-1.51l-2.094-.224a1.874 1.874 0 0 0-.744.062 17.425 17.425 0 0 0-.406-1.027 1.93 1.93 0 0 0 .572-.466l1.32-1.573c.789-.942.446-1.55-.765-1.359l-2.082.324c-.257.04-.473.123-.662.23a16.542 16.542 0 0 0-.671-.896c.154-.152.294-.334.403-.567l.866-1.861c.52-1.114.03-1.614-1.09-1.114l-1.926.853a1.936 1.936 0 0 0-.546.365c-.29-.24-.597-.46-.903-.68.104-.183.189-.39.233-.633l.357-2.023c.211-1.21-.39-1.566-1.342-.793l-1.642 1.32c-.185.15-.32.315-.427.485-.344-.156-.693-.3-1.05-.434.05-.198.078-.413.057-.653l-.18-2.045c-.107-1.225-.779-1.413-1.5-.42l-1.244 1.7c-.14.192-.226.387-.286.577-.374-.06-.745-.123-1.127-.16a1.91 1.91 0 0 0-.115-.64L21.27.87c-.42-1.152-1.116-1.16-1.558-.017l-.759 1.964c-.085.222-.119.43-.128.63-.38.038-.752.106-1.125.17a1.943 1.943 0 0 0-.283-.609l-1.176-1.683c-.704-1.005-1.379-.831-1.51.387l-.224 2.094a1.92 1.92 0 0 0 .047.674c-.352.134-.698.282-1.039.44a1.95 1.95 0 0 0-.441-.532L11.5 3.065c-.94-.788-1.547-.446-1.357.764l.325 2.081c.04.26.125.48.235.669-.3.22-.601.441-.887.68a1.952 1.952 0 0 0-.582-.417l-1.863-.868c-1.111-.519-1.61-.031-1.113 1.088L7.11 8.99c.112.252.257.452.422.61-.23.287-.45.582-.662.885a1.894 1.894 0 0 0-.713-.274l-2.023-.358c-1.207-.212-1.562.388-.794 1.34l1.323 1.642c.184.229.39.394.602.504-.145.331-.27.671-.392 1.013a1.909 1.909 0 0 0-.813-.092l-2.047.178c-1.221.109-1.41.778-.42 1.5l1.703 1.242c.258.19.522.3.775.344-.053.356-.103.715-.134 1.079-.261-.031-.55 0-.856.112l-1.932.701c-1.151.422-1.16 1.118-.018 1.56z"/></g><g><path fill="#2575e6" d="M17.672 17.273c-.044-.159.007-.317.153-.473.147-.155.342-.306.587-.453.243-.146.508-.282.792-.406.284-.123.545-.23.786-.32a.648.648 0 0 1 .332-.092c.108.019.196.054.267.107.07.054.128.133.173.24a.793.793 0 0 1 .212.413c.027.15.04.315.04.491v.213c0 .071-.005.138-.013.2-.01.073-.016.152-.02.241a257.989 257.989 0 0 0-.1 1.293c-.026.354-.052.708-.073 1.058-.023.35-.04.688-.053 1.012-.015.324-.02.616-.02.872-.009.392-.002.786.02 1.185s.047.724.072.973a.857.857 0 0 0 .06.1c.024.03.042.06.061.086h.014l.126.072c.04.023.06.096.06.22a.555.555 0 0 1-.087.333.483.483 0 0 1-.233.173 1.08 1.08 0 0 1-.332.06 3.882 3.882 0 0 1-.387-.007c-.044 0-.09-.002-.14-.007a1.597 1.597 0 0 0-.14-.006h-.932c-.231 0-.387-.021-.467-.067-.078-.044-.11-.103-.093-.173a.717.717 0 0 1 .155-.26 7.38 7.38 0 0 1 .273-.312l.2-.24.013-2.118c0-.39.013-.809.04-1.258.027-.448.053-.877.08-1.285.025-.301.048-.58.066-.84.018-.256.026-.465.026-.624h-.014c-.07 0-.14.01-.206.032a3.68 3.68 0 0 1-.205.061.621.621 0 0 0-.174.067.432.432 0 0 1-.213.04.725.725 0 0 1-.48-.18.647.647 0 0 1-.239-.446zm2.808 13.41c5.79 0 10.483-4.693 10.483-10.482 0-5.79-4.693-10.485-10.483-10.485-5.79 0-10.483 4.694-10.483 10.485 0 5.79 4.693 10.482 10.483 10.482z"/></g></g></svg>